#!OML:ASF I:\Actors\actors\Patient Classification 1\Patient 1\Session 1\Subject1.ASF
:FULLY-SPECIFIED
:DEGREES
787
root 0.31504 17.6625 9.56325 19.9374 8.2015 -8.55235
lowerback 4.0792 1.34024 7.4292
upperback -10.1801 2.77129 0.890159
thorax -13.1375 0.642643 -3.58828
lowerneck -13.0789 -5.64504 -2.82029
upperneck 33.787 -10.0893 7.18146
head 14.3243 -3.75794 1.77944
rclavicle 1.3331e-014 4.45278e-014
rhumerus -13.7379 38.478 -13.887
rradius 56.6678
rwrist -26.8463
rhand 80.149 -64.7244
rfingers 7.12502
rthumb 67.7089 27.2324
lclavicle 1.3331e-014 4.45278e-014
lhumerus -13.5561 -33.0766 11.5499
lradius 55.9613
lwrist 43.0967
lhand 25.9052 -9.20799
lfingers 7.12502
lthumb 49.9909 12.0195
rfemur -9.36295 33.9219 19.7888
rtibia -0.968374
rfoot -22.2762 -39.6188
rtoes 14.9863
lfemur -7.27992 -56.9808 -0.171332
ltibia -6.9127
lfoot -37.4336 59.3585
ltoes 23.0749
788
root 0.31549 17.6639 9.58128 19.8246 8.11821 -8.54813
lowerback 3.96543 1.29011 7.42661
upperback -10.2806 2.70131 0.922971
thorax -13.1966 0.607055 -3.53776
lowerneck -13.0087 -5.6019 -2.92106
upperneck 33.8796 -10.0387 7.25935
head 14.3592 -3.73911 1.84046
rclavicle 1.75179e-015 -5.96354e-015
rhumerus -13.1608 37.8552 -13.2436
rradius 56.5509
rwrist -26.6496
rhand 80.0943 -65.197
rfingers 7.12502
rthumb 67.7495 26.6673
lclavicle 1.75179e-015 -5.96354e-015
lhumerus -13.2026 -32.6728 11.0843
lradius 55.9575
lwrist 43.1174
lhand 25.8996 -9.02879
lfingers 7.12502
lthumb 49.9858 12.2014
rfemur -9.1678 33.8306 19.9139
rtibia -0.926777
rfoot -22.2581 -39.4553
rtoes 15.0218
lfemur -6.88958 -57.0094 -0.530999
ltibia -6.91489
lfoot -37.1855 59.543
ltoes 22.5981
789
root 0.315636 17.6641 9.59896 19.714 8.05378 -8.52009
lowerback 3.81101 1.23635 7.40693
upperback -10.3766 2.61709 0.928024
thorax -13.2251 0.56602 -3.50483
lowerneck -12.9723 -5.56334 -2.93265
upperneck 34.0587 -9.9895 7.22724
head 14.4279 -3.72031 1.84168
rclavicle -4.98825e-015 5.56597e-015
rhumerus -12.5076 37.3409 -12.68
rradius 56.2207
rwrist -26.5842
rhand 79.9438 -65.6047
rfingers 7.12502
rthumb 67.8224 26.037
lclavicle -4.98825e-015 5.56597e-015
lhumerus -12.8064 -32.2358 10.5402
lradius 56.0016
lwrist 43.035
lhand 26.2671 -8.84027
lfingers 7.12502
lthumb 50.3219 12.2118
rfemur -8.96313 33.583 20.0402
rtibia -0.90019
rfoot -21.992 -39.2952
rtoes 14.2722
lfemur -6.50285 -57.0605 -0.904184
ltibia -6.92008
lfoot -37.1451 59.6254
ltoes 22.4324
790
root 0.315406 17.663 9.61641 19.6076 8.01555 -8.49974
lowerback 3.63227 1.22877 7.42955
upperback -10.4541 2.59238 0.890798
thorax -13.2064 0.548842 -3.54946
lowerneck -12.8779 -5.56868 -2.72479
upperneck 34.079 -9.95685 6.94198
head 14.3786 -3.72049 1.69775
rclavicle -2.04686e-014 3.22031e-014
rhumerus -12.0744 36.6563 -12.1647
rradius 55.9763
rwrist -26.341
rhand 80.3481 -65.6299
rfingers 7.12502
rthumb 67.8237 26.4426
lclavicle -2.04686e-014 3.22031e-014
lhumerus -12.1975 -31.7467 9.93397
lradius 56.0377
lwrist 42.882
lhand 26.874 -8.75575
lfingers 7.12502
lthumb 50.8759 11.9947
rfemur -8.74736 33.4015 20.1694
rtibia -0.904575
rfoot -21.7492 -39.2042
rtoes 13.7286
lfemur -6.19204 -57.1287 -1.21704
ltibia -6.85942
lfoot -37.2831 59.6345
ltoes 22.5386
791
root 0.314839 17.6625 9.63322 19.4942 7.97092 -8.5417
lowerback 3.48851 1.24374 7.5116
upperback -10.5307 2.60901 0.862563
thorax -13.2034 0.545274 -3.62423
lowerneck -12.9427 -5.63465 -2.87334
upperneck 34.3469 -10.1074 7.10876
head 14.551 -3.77202 1.76844
rclavicle -1.46479e-014 -9.54166e-015
rhumerus -11.7133 35.9457 -11.6005
rradius 55.8415
rwrist -25.9619
rhand 80.7411 -65.7043
rfingers 7.12502
rthumb 67.7874 26.8132
lclavicle -1.46479e-014 -9.54166e-015
lhumerus -11.5297 -31.2916 9.35241
lradius 56.0333
lwrist 42.7956
lhand 27.2147 -8.71366
lfingers 7.12502
lthumb 51.1863 11.8632
rfemur -8.53236 33.4904 20.3362
rtibia -0.914971
rfoot -21.8348 -39.2083
rtoes 14.0185
lfemur -5.87098 -57.1697 -1.46544
ltibia -6.80227
lfoot -37.4482 59.6329
ltoes 22.588
792
root 0.314405 17.6627 9.64897 19.4179 7.913 -8.57319
lowerback 3.33319 1.25188 7.56829
upperback -10.6228 2.61444 0.843884
thorax -13.214 0.538678 -3.67258
lowerneck -12.6956 -5.6647 -2.83468
upperneck 34.1524 -10.1427 7.10318
head 14.4041 -3.79781 1.75727
rclavicle -1.04471e-014 -5.96354e-015
rhumerus -11.2672 35.3865 -10.9697
rradius 55.7339
rwrist -25.5635
rhand 80.8211 -65.8152
rfingers 7.12502
rthumb 67.6589 26.8865
lclavicle -1.04471e-014 -5.96354e-015
lhumerus -10.9335 -30.9276 8.78818
lradius 56.0609
lwrist 42.8471
lhand 27.2381 -8.66714
lfingers 7.12502
lthumb 51.2076 11.8977
rfemur -8.3547 33.7101 20.45
rtibia -0.941065
rfoot -22.0883 -39.2747
rtoes 14.6656
lfemur -5.55424 -57.1873 -1.70571
ltibia -6.80578
lfoot -37.6899 59.6184
ltoes 22.7057
793
root 0.315173 17.663 9.6651 19.3701 7.84488 -8.53004
lowerback 3.13414 1.2326 7.52502
upperback -10.7099 2.57034 0.851812
thorax -13.1998 0.521716 -3.62779
lowerneck -12.6178 -5.65181 -2.94705
upperneck 34.176 -10.1152 7.15128
head 14.4058 -3.79668 1.80336
rclavicle -2.51463e-014 -2.66371e-014
rhumerus -10.6339 34.9297 -10.2316
rradius 55.6252
rwrist -25.3857
rhand 80.9769 -65.9726
rfingers 7.12502
rthumb 67.5389 26.9823
lclavicle -2.51463e-014 -2.66371e-014
lhumerus -10.495 -30.6409 8.26177
lradius 56.1735
lwrist 43.0527
lhand 27.1464 -8.58718
lfingers 7.12502
lthumb 51.1241 12.0247
rfemur -8.16836 33.8087 20.4845
rtibia -1.00759
rfoot -22.1189 -39.3269
rtoes 14.7644
lfemur -5.21296 -57.2152 -2.05127
ltibia -6.85027
lfoot -37.9083 59.6227
ltoes 22.8495
794
root 0.316708 17.6622 9.6817 19.2981 7.7646 -8.49631
lowerback 2.95178 1.19384 7.47831
upperback -10.7957 2.5038 0.886505
thorax -13.1984 0.495521 -3.54935
lowerneck -12.556 -5.57417 -2.89227
upperneck 34.2784 -9.98712 7.03919
head 14.4172 -3.74891 1.77309
rclavicle -5.84551e-015 7.55382e-015
rhumerus -9.88156 34.4468 -9.50971
rradius 55.46
rwrist -25.3902
rhand 81.3353 -66.1394
rfingers 7.12502
rthumb 67.5137 27.1985
lclavicle -5.84551e-015 7.55382e-015
lhumerus -10.149 -30.3311 7.80604
lradius 56.2408
lwrist 43.1663
lhand 27.0993 -8.5642
lfingers 7.12502
lthumb 51.0812 12.0718
rfemur -7.9622 33.7102 20.5597
rtibia -1.06981
rfoot -21.8477 -39.281
rtoes 14.1471
lfemur -4.7759 -57.2411 -2.47174
ltibia -6.89981
lfoot -38.3341 59.5316
ltoes 23.1985
795
root 0.317053 17.6608 9.69574 19.2148 7.67712 -8.4937
lowerback 2.84468 1.1762 7.47401
upperback -10.8989 2.47624 0.896288
thorax -13.2591 0.478864 -3.52999
lowerneck -12.4458 -5.5445 -2.87727
upperneck 34.3295 -9.95518 7.03833
head 14.4124 -3.73599 1.77942
rclavicle -2.68173e-014 -1.98785e-014
rhumerus -9.22779 33.8303 -8.93454
rradius 55.2072
rwrist -25.2822
rhand 81.5565 -66.2522
rfingers 7.12502
rthumb 67.5355 27.2898
lclavicle -2.68173e-014 -1.98785e-014
lhumerus -9.69676 -29.979 7.34611
lradius 56.2217
lwrist 43.0813
lhand 27.1649 -8.48699
lfingers 7.12502
lthumb 51.141 12.1154
rfemur -7.80876 33.5724 20.6488
rtibia -1.07427
rfoot -21.6552 -39.134
rtoes 13.7139
lfemur -4.38901 -57.2478 -2.81727
ltibia -6.91471
lfoot -38.7371 59.4509
ltoes 23.4422
796
root 0.316552 17.661 9.70696 19.1309 7.61714 -8.47114
lowerback 2.81149 1.16925 7.48559
upperback -11.0098 2.47037 0.883768
thorax -13.372 0.466985 -3.54951
lowerneck -12.3884 -5.57071 -2.89988
upperneck 34.3592 -9.99601 7.04076
head 14.4176 -3.75777 1.77944
rclavicle 2.32081e-014 -1.59028e-014
rhumerus -8.66907 33.1196 -8.39505
rradius 54.952
rwrist -24.967
rhand 81.4286 -66.3302
rfingers 7.12502
rthumb 67.481 27.1214
lclavicle 2.32081e-014 -1.59028e-014
lhumerus -9.17022 -29.6553 6.86327
lradius 56.2222
lwrist 42.995
lhand 27.2116 -8.33422
lfingers 7.12502
lthumb 51.1835 12.2442
rfemur -7.66967 33.4892 20.7056
rtibia -1.05617
rfoot -21.6948 -38.9504
rtoes 13.9498
lfemur -4.10483 -57.2743 -3.08617
ltibia -6.91978
lfoot -38.7682 59.5175
ltoes 23.3121
797
root 0.31542 17.6625 9.71723 19.0469 7.55782 -8.42469
lowerback 2.77401 1.12945 7.4409
upperback -11.1087 2.41612 0.902298
thorax -13.4759 0.440602 -3.49675
lowerneck -12.3638 -5.56256 -2.93731
upperneck 34.3961 -9.9665 6.99968
head 14.4258 -3.75602 1.77511
rclavicle -4.08751e-015 2.46493e-014
rhumerus -7.98408 32.4314 -7.78739
rradius 54.7207
rwrist -24.5914
rhand 81.3143 -66.4234
rfingers 7.12502
rthumb 67.4006 26.9727
lclavicle -4.08751e-015 2.46493e-014
lhumerus -8.81149 -29.2659 6.44889
lradius 56.2764
lwrist 42.8469
lhand 27.3763 -8.2058
lfingers 7.12502
lthumb 51.3334 12.2876
rfemur -7.52393 33.4352 20.7398
rtibia -1.03903
rfoot -21.7838 -38.8133
rtoes 14.231
lfemur -3.79828 -57.3044 -3.38404
ltibia -6.95922
lfoot -38.8575 59.5173
ltoes 23.4729
798
root 0.313843 17.6635 9.72733 18.9892 7.47778 -8.39695
lowerback 2.6774 1.09291 7.35797
upperback -11.1981 2.35863 0.943351
thorax -13.5325 0.420797 -3.3954
lowerneck -12.2903 -5.52696 -2.95666
upperneck 34.3728 -9.90766 6.99608
head 14.3947 -3.73765 1.78835
rclavicle -1.92945e-014 -2.38542e-014
rhumerus -7.27321 31.7884 -7.17692
rradius 54.4804
rwrist -24.3555
rhand 81.5287 -66.5379
rfingers 7.12502
rthumb 67.3601 27.1011
lclavicle -1.92945e-014 -2.38542e-014
lhumerus -8.49601 -28.8323 6.07124
lradius 56.3149
lwrist 42.6571
lhand 27.5864 -8.15862
lfingers 7.12502
lthumb 51.5245 12.2253
rfemur -7.42455 33.3988 20.774
rtibia -1.01229
rfoot -21.7695 -38.7593
rtoes 14.0323
lfemur -3.4827 -57.3041 -3.67016
ltibia -7.01463
lfoot -39.248 59.395
ltoes 23.9948
799
root 0.312834 17.6632 9.73895 18.9336 7.42303 -8.43242
lowerback 2.548 1.08126 7.3598
upperback -11.2743 2.33896 0.978677
thorax -13.5469 0.411824 -3.35137
lowerneck -12.2546 -5.51129 -2.9769
upperneck 34.3518 -9.89296 7.03288
head 14.3797 -3.73151 1.80986
rclavicle -1.23743e-014 -2.38542e-015
rhumerus -6.6745 31.1866 -6.61196
rradius 54.2281
rwrist -24.2805
rhand 81.6741 -66.6462
rfingers 7.12502
rthumb 67.2505 27.2179
lclavicle -1.23743e-014 -2.38542e-015
lhumerus -8.08054 -28.4705 5.64426
lradius 56.3311
lwrist 42.638
lhand 27.577 -8.24093
lfingers 7.12502
lthumb 51.5159 12.1479
rfemur -7.29616 33.3897 20.8971
rtibia -1.02218
rfoot -21.6694 -38.7422
rtoes 13.7319
lfemur -3.20975 -57.3056 -3.86171
ltibia -7.02926
lfoot -39.6286 59.3062
ltoes 24.3102
800
root 0.311456 17.6628 9.75161 18.8576 7.38376 -8.48987
lowerback 2.43283 1.05586 7.40306
upperback -11.3405 2.305 1.01322
thorax -13.5597 0.391593 -3.32965
lowerneck -12.258 -5.50363 -3.01758
upperneck 34.3355 -9.88772 7.07496
head 14.3782 -3.73029 1.83434
rclavicle 1.31943e-014 6.75868e-015
rhumerus -6.11507 30.6846 -6.03845
rradius 54.0719
rwrist -24.3289
rhand 81.6421 -66.7858
rfingers 7.12502
rthumb 67.1798 27.0967
lclavicle 1.31943e-014 6.75868e-015
lhumerus -7.72122 -28.1322 5.2091
lradius 56.3661
lwrist 42.7558
lhand 27.4219 -8.34069
lfingers 7.12502
lthumb 51.3749 12.1291
rfemur -7.1157 33.4336 21.0632
rtibia -1.06657
rfoot -21.6381 -38.732
rtoes 13.6806
lfemur -2.9536 -57.3183 -4.02268
ltibia -7.0097
lfoot -39.8072 59.2991
ltoes 24.327
801
root 0.31033 17.6628 9.76243 18.7639 7.34664 -8.50434
lowerback 2.39358 1.02119 7.43485
upperback -11.4221 2.26283 1.02251
thorax -13.6393 0.36364 -3.33077
lowerneck -12.2728 -5.50833 -3.11405
upperneck 34.3684 -9.90256 7.14797
head 14.4092 -3.73913 1.87829
rclavicle -7.33018e-015 -7.55382e-015
rhumerus -5.66255 30.1979 -5.49456
rradius 54.0525
rwrist -24.3163
rhand 81.5827 -66.9629
rfingers 7.12502
rthumb 67.2473 26.8041
lclavicle -7.33018e-015 -7.55382e-015
lhumerus -7.34514 -27.784 4.78515
lradius 56.3405
lwrist 42.7518
lhand 27.4705 -8.43167
lfingers 7.12502
lthumb 51.4191 12.0128
rfemur -6.9255 33.4895 21.1813
rtibia -1.10205
rfoot -21.6772 -38.7528
rtoes 13.6698
lfemur -2.68603 -57.3535 -4.24612
ltibia -6.97657
lfoot -39.9147 59.3257
ltoes 24.1991
